<svg width="168" height="87" xmlns="http://www.w3.org/2000/svg" xmlns:xlink="http://www.w3.org/1999/xlink" xml:space="preserve" overflow="hidden"><defs><clipPath id="clip0"><rect x="1065" y="45" width="168" height="87"/></clipPath></defs><g clip-path="url(#clip0)" transform="translate(-1065 -45)"><path d="M18.9358 0 22.4815 0C24.5093 0 25.5935 0.890821 25.5935 2.72521 25.5935 3.13545 25.5466 3.59259 25.4236 4.0966L25.1364 5.44456C24.5327 8.21665 23.2551 9.44739 20.5768 9.44739L18.4318 9.44739 16.867 16.8728 15.3256 16.8728 18.9358 0ZM20.7233 8.07599C22.3877 8.07599 23.2082 7.30239 23.6185 5.42111L23.9291 3.9032C23.9994 3.5164 24.0522 3.18234 24.0522 2.88931 24.0522 1.78164 23.4251 1.34795 22.2705 1.34795L20.1724 1.34795 18.7483 8.07599 20.7233 8.07599Z" fill="#1D94CB" transform="matrix(1 0 0 1.00072 1065.05 45)"/><path d="M31.5948 4.84677 31.3077 6.24747C30.997 6.07751 30.5575 6.00718 30.2234 6.00718 28.7993 6.00718 27.8147 7.19103 27.3048 9.52944L25.74 16.8846 24.2456 16.8846 26.8243 4.82919 28.0784 4.82919 27.7385 6.58738C28.389 5.23943 29.3326 4.5889 30.4872 4.5889 30.8271 4.5889 31.3545 4.71197 31.5948 4.85263Z" fill="#1D94CB" transform="matrix(1 0 0 1.00072 1065.05 45)"/><path d="M30.5809 14.1066C30.5809 13.7433 30.6278 13.333 30.7275 12.9228L31.7648 8.07599C32.2454 5.83136 33.5464 4.58304 35.5039 4.58304 37.4614 4.58304 38.8328 5.64382 38.8328 7.59542 38.8328 7.95878 38.7859 8.36903 38.6862 8.80272L37.6489 13.6495C37.1683 15.8941 35.8673 17.119 33.9098 17.119 31.9523 17.119 30.5809 16.0582 30.5809 14.1066ZM36.1486 13.5967 37.2562 8.50968C37.3266 8.19907 37.3793 7.90603 37.3793 7.6423 37.3793 6.41156 36.6057 5.88411 35.4511 5.88411 34.2966 5.88411 33.5464 6.7046 33.2358 8.09944L32.1516 13.1865C32.0813 13.4971 32.0285 13.7901 32.0285 14.0539 32.0285 15.2846 32.7787 15.8121 33.9567 15.8121 35.1347 15.8121 35.8614 14.9916 36.1486 13.5967Z" fill="#1D94CB" transform="matrix(1 0 0 1.00072 1065.05 45)"/><path d="M41.6224 14.3938C41.5755 14.5872 41.5521 14.7337 41.5521 14.8978 41.5521 15.648 42.0561 15.8121 42.6598 15.8121 42.9997 15.8121 43.3103 15.7652 43.6502 15.6187L43.5037 16.8963C43.0231 17.0897 42.6363 17.1131 42.1557 17.1131 40.8781 17.1131 40.0576 16.4392 40.0576 15.1615 40.0576 14.9212 40.0811 14.681 40.128 14.4114L41.8862 6.07165 40.3448 6.07165 40.6085 4.81746 42.2026 4.81746 43.1403 1.24832 44.3945 1.24832 43.6444 4.81746 46.0062 4.81746 45.719 6.07165 43.3806 6.07165 41.6224 14.3879Z" fill="#1D94CB" transform="matrix(1 0 0 1.00072 1065.05 45)"/><path d="M53.5782 7.57198C53.5782 7.95878 53.5313 8.36903 53.4317 8.82616L52.9511 11.018 47.36 11.018 46.9029 13.1396C46.8326 13.4502 46.7798 13.7667 46.7798 14.0539 46.7798 15.185 47.4303 15.8121 48.708 15.8121 49.8918 15.8121 50.6596 15.0678 50.976 13.544L51.0698 13.04 52.5174 13.04 52.4236 13.5733C51.9431 15.8648 50.6127 17.119 48.6611 17.119 46.4692 17.119 45.3322 15.9879 45.3322 14.1066 45.3322 13.7198 45.3791 13.3096 45.4787 12.8524L46.4926 8.08185C46.9498 5.83722 48.2274 4.5889 50.2083 4.5889 52.3533 4.5889 53.584 5.64968 53.584 7.57784ZM47.6003 9.78731 51.7731 9.78731 52.0368 8.53312C52.1072 8.19321 52.1306 7.90603 52.1306 7.66575 52.1306 6.43501 51.3335 5.88411 50.179 5.88411 49.0244 5.88411 48.2977 6.60497 47.9637 8.09944L47.6003 9.78731Z" fill="#1D94CB" transform="matrix(1 0 0 1.00072 1065.05 45)"/><path d="M62.8615 4.82333 60.1363 17.7226C59.726 19.7211 58.6418 20.8581 56.3972 20.8581 54.3225 20.8581 53.1679 19.9204 53.1679 18.256 53.1679 18.086 53.1679 17.9453 53.2148 17.7226L54.6155 17.7226C54.5921 17.8692 54.5921 17.9629 54.5921 18.086 54.5921 19.0765 55.2426 19.6039 56.4499 19.6039 57.6572 19.6039 58.4015 19.0003 58.6945 17.6523L59.2279 15.1674C58.5539 15.9879 57.6338 16.4685 56.6257 16.4685 54.9613 16.4685 54.0236 15.6011 54.0236 13.9601 54.0236 13.5967 54.0705 13.1865 54.1701 12.7294L55.2309 7.73607C55.6646 5.59107 56.7957 4.57718 58.3663 4.57718 59.937 4.57718 60.8981 5.39767 61.1853 6.74562L61.619 4.81746 62.8732 4.81746ZM59.726 12.7059 60.5699 8.67964C60.5934 8.48624 60.5934 8.29284 60.5934 8.12288 60.5934 6.69874 59.8198 5.87824 58.6418 5.87824 57.5341 5.87824 56.9305 6.65185 56.6433 7.97636L55.6294 12.7528C55.5825 13.0927 55.5356 13.3799 55.5356 13.6436 55.5356 14.681 56.1862 15.185 57.1532 15.185 58.2608 15.185 59.2747 14.2942 59.7319 12.7001Z" fill="#1D94CB" transform="matrix(1 0 0 1.00072 1065.05 45)"/><path d="M71.125 7.57198C71.125 7.95878 71.0781 8.36903 70.9785 8.82616L70.4979 11.018 64.9068 11.018 64.4497 13.1396C64.3794 13.4502 64.3266 13.7667 64.3266 14.0539 64.3266 15.185 64.9772 15.8121 66.2548 15.8121 67.4386 15.8121 68.2064 15.0678 68.5229 13.544L68.6166 13.04 70.0642 13.04 69.9705 13.5733C69.4899 15.8648 68.1595 17.119 66.2079 17.119 64.016 17.119 62.879 15.9879 62.879 14.1066 62.879 13.7198 62.9259 13.3096 63.0256 12.8524L64.0395 8.08185C64.4966 5.83722 65.7742 4.5889 67.7551 4.5889 69.9001 4.5889 71.1309 5.64968 71.1309 7.57784ZM65.1471 9.78731 69.3199 9.78731 69.5836 8.53312C69.654 8.19321 69.6774 7.90603 69.6774 7.66575 69.6774 6.43501 68.8804 5.88411 67.7258 5.88411 66.5713 5.88411 65.8445 6.60497 65.5105 8.09944L65.1471 9.78731Z" fill="#1D94CB" transform="matrix(1 0 0 1.00072 1065.05 45)"/><path d="M85.0382 7.03866C85.0382 7.42546 84.9913 7.85915 84.8917 8.33972L83.0573 16.8728 81.5863 16.8728 83.3679 8.41005C83.4676 7.9998 83.491 7.71263 83.491 7.44304 83.491 6.45259 83.0339 5.87824 82.02 5.87824 81.0061 5.87824 79.9922 6.72218 79.5585 8.31042L79.5585 8.33386 77.7241 16.867 76.2531 16.867 78.0347 8.40419C78.1285 7.99394 78.1812 7.70677 78.1812 7.43718 78.1812 6.44673 77.7007 5.87238 76.6868 5.87238 75.5557 5.87238 74.5652 6.83939 74.1784 8.62103L72.4202 16.867 70.9257 16.867 73.5044 4.8116 74.7586 4.8116 74.4714 6.28263C75.1454 5.19841 76.089 4.57132 77.2201 4.57132 78.5915 4.57132 79.4882 5.22185 79.6816 6.47603 80.3555 5.26874 81.3694 4.57132 82.5533 4.57132 84.1181 4.57132 85.0382 5.41525 85.0382 7.03279Z" fill="#1D94CB" transform="matrix(1 0 0 1.00072 1065.05 45)"/><path d="M85.4485 14.1066C85.4485 13.7433 85.4953 13.333 85.595 12.9228L86.6323 8.07599C87.1129 5.83136 88.414 4.58304 90.3714 4.58304 92.3289 4.58304 93.7003 5.64382 93.7003 7.59542 93.7003 7.95878 93.6534 8.36903 93.5538 8.80272L92.5164 13.6495C92.0358 15.8941 90.7348 17.119 88.7773 17.119 86.8199 17.119 85.4485 16.0582 85.4485 14.1066ZM91.0161 13.5967 92.1238 8.50968C92.1941 8.19907 92.2468 7.90603 92.2468 7.6423 92.2468 6.41156 91.4732 5.88411 90.3187 5.88411 89.1641 5.88411 88.414 6.7046 88.1033 8.09944L87.0191 13.1865C86.9488 13.4971 86.896 13.7901 86.896 14.0539 86.896 15.2846 87.6462 15.8121 88.8242 15.8121 90.0022 15.8121 90.7289 14.9916 91.0161 13.5967Z" fill="#1D94CB" transform="matrix(1 0 0 1.00072 1065.05 45)"/><path d="M93.8116 14.4641C93.8116 14.2004 93.8351 13.8839 93.9054 13.5499L93.9523 13.333 95.353 13.333 95.2827 13.6964C95.2358 13.9132 95.2123 14.1066 95.2123 14.3235 95.2123 15.4311 96.0328 15.8414 96.9705 15.8414 98.5119 15.8414 99.1624 14.6868 99.1624 13.6729 99.1624 12.5418 98.3419 11.9382 97.4277 11.358 96.3669 10.684 95.183 9.95727 95.183 8.19907 95.183 6.24747 96.6072 4.58304 98.8459 4.58304 100.557 4.58304 101.688 5.55005 101.688 7.20861 101.688 7.47234 101.665 7.78882 101.595 8.09944L100.194 8.09944C100.241 7.83571 100.288 7.59542 100.288 7.32583 100.288 6.41156 99.684 5.8548 98.7229 5.8548 97.4687 5.8548 96.6247 6.84525 96.6247 7.97636 96.6247 9.10747 97.4452 9.68768 98.4064 10.2444 99.4437 10.9184 100.651 11.6686 100.651 13.4502 100.651 15.3784 99.2503 17.1131 96.8416 17.1131 95.1303 17.1131 93.8058 16.2458 93.8058 14.4583Z" fill="#1D94CB" transform="matrix(1 0 0 1.00072 1065.05 45)"/><path d="M76.7923 82.5005C76.5813 83.45 76.5168 84.1533 76.5344 84.4463L75.6025 84.4463C75.585 84.2705 75.6201 83.9012 75.6963 83.4793 75.245 84.2001 74.5711 84.6045 73.7975 84.6045 72.7074 84.6045 72.0451 84.0243 72.0451 82.9342 72.0451 82.694 72.092 82.4185 72.1565 82.1137L72.9418 78.3512C73.229 76.9212 73.985 76.2472 75.0341 76.2472 75.9483 76.2472 76.593 76.7102 76.8509 77.5014L77.7651 73.1938 78.779 73.1938 76.7864 82.5005ZM75.9073 81.9028 76.4699 79.283C76.5168 79.0428 76.5344 78.8025 76.5344 78.6091 76.5344 77.6596 76.0187 77.1146 75.2333 77.1146 74.4949 77.1146 74.0905 77.6303 73.8971 78.5153L73.1411 82.1137C73.0942 82.3364 73.0766 82.5299 73.0766 82.7057 73.0766 83.4265 73.4927 83.7371 74.1374 83.7371 74.9227 83.7371 75.6494 83.1276 75.9073 81.9028Z" fill="#1D94CB" transform="matrix(1 0 0 1.00072 1065.05 45)"/><path d="M83.5731 78.2398C83.5731 78.4977 83.5379 78.7732 83.4793 79.0779L83.1569 80.5431 79.4296 80.5431 79.1248 81.9555C79.0779 82.1665 79.0428 82.3716 79.0428 82.565 79.0428 83.321 79.4764 83.7371 80.3262 83.7371 81.1116 83.7371 81.6273 83.239 81.8383 82.2251L81.9028 81.8852 82.8698 81.8852 82.8053 82.2368C82.483 83.7664 81.598 84.5987 80.2969 84.5987 78.8318 84.5987 78.0816 83.8426 78.0816 82.5885 78.0816 82.3306 78.1109 82.0551 78.1754 81.7504L78.8493 78.568C79.1541 77.0736 80.0039 76.2355 81.3225 76.2355 82.7526 76.2355 83.5731 76.9446 83.5731 78.2281ZM79.5878 79.7167 82.3657 79.7167 82.5416 78.8787C82.5885 78.656 82.606 78.4626 82.606 78.2985 82.606 77.478 82.0727 77.1087 81.305 77.1087 80.5372 77.1087 80.0508 77.5893 79.8281 78.5856L79.5878 79.7109Z" fill="#1D94CB" transform="matrix(1 0 0 1.00072 1065.05 45)"/><path d="M88.3964 73.1938 89.3751 73.1938 86.9781 84.4463 85.9818 84.4463 88.3905 73.1938Z" fill="#1D94CB" transform="matrix(1 0 0 1.00072 1065.05 45)"/><path d="M94.0695 78.0464C94.0695 78.2867 94.0343 78.527 93.9874 78.8025L93.2021 82.5005C92.9911 83.45 92.9442 84.1533 92.9618 84.4463L92.03 84.4463C92.0124 84.2705 92.0476 83.913 92.112 83.4969 91.6608 84.2177 91.0044 84.6045 90.1839 84.6045 89.1055 84.6045 88.4608 83.913 88.4608 82.9166 88.4608 81.2639 89.504 80.5079 91.0806 80.0215 92.5106 79.5878 92.8153 79.4296 92.9618 78.9783L93.0439 78.5622C93.079 78.4157 93.0908 78.275 93.0908 78.1285 93.0908 77.4838 92.6747 77.097 91.9362 77.097 91.1978 77.097 90.682 77.5307 90.5238 78.3336L90.4593 78.6852 89.5275 78.6852 89.6095 78.2985C89.8967 76.9622 90.7641 76.2414 91.9714 76.2414 93.2431 76.2414 94.0754 76.8333 94.0754 78.0406ZM92.3289 81.9848 92.7157 80.0859C92.5223 80.3087 92.1238 80.4728 91.2036 80.7599 90.1253 81.1116 89.4806 81.7269 89.4806 82.7526 89.4806 83.3503 89.8029 83.7489 90.5414 83.7489 91.3794 83.7489 92.0534 83.1218 92.323 81.979Z" fill="#1D94CB" transform="matrix(1 0 0 1.00072 1065.05 45)"/><path d="M94.1926 82.8346C94.1926 82.6588 94.2102 82.4478 94.257 82.2251L94.2922 82.0786 95.224 82.0786 95.1772 82.3189C95.142 82.4654 95.1303 82.5943 95.1303 82.735 95.1303 83.4734 95.6753 83.7489 96.3024 83.7489 97.3339 83.7489 97.7676 82.9753 97.7676 82.3013 97.7676 81.5453 97.2225 81.1467 96.613 80.7599 95.9039 80.3087 95.1186 79.8281 95.1186 78.656 95.1186 77.3549 96.068 76.2472 97.5624 76.2472 98.7053 76.2472 99.4613 76.8919 99.4613 77.9996 99.4613 78.1754 99.4437 78.3864 99.3968 78.5915L98.465 78.5915C98.5002 78.4157 98.5295 78.2516 98.5295 78.0757 98.5295 77.4662 98.1251 77.097 97.4863 77.097 96.6482 77.097 96.0856 77.7534 96.0856 78.5094 96.0856 79.2655 96.6306 79.6523 97.2753 80.0215 97.9668 80.4728 98.7697 80.9709 98.7697 82.1606 98.7697 83.4441 97.8379 84.6045 96.2321 84.6045 95.0892 84.6045 94.2043 84.0243 94.2043 82.8346Z" fill="#1D94CB" transform="matrix(1 0 0 1.00072 1065.05 45)"/><path d="M107.824 77.9175C107.824 78.1578 107.789 78.4333 107.731 78.738L106.945 82.5181C106.641 83.9481 105.902 84.6045 104.853 84.6045 103.939 84.6045 103.294 84.1415 103.036 83.3679L102.28 86.9371 101.284 86.9371 103.534 76.4113 104.373 76.4113 104.179 77.4076C104.63 76.6692 105.322 76.2531 106.09 76.2531 107.18 76.2531 107.824 76.8333 107.824 77.9234ZM106.811 78.1402C106.811 77.4311 106.377 77.1087 105.732 77.1087 104.947 77.1087 104.238 77.7182 103.98 78.9431L103.4 81.6273C103.365 81.85 103.353 82.061 103.353 82.2544 103.353 83.2038 103.869 83.7313 104.654 83.7313 105.375 83.7313 105.797 83.2156 105.99 82.3482L106.746 78.7321C106.775 78.5094 106.811 78.316 106.811 78.1402Z" fill="#1D94CB" transform="matrix(1 0 0 1.00072 1065.05 45)"/><path d="M113.609 78.2398C113.609 78.4977 113.574 78.7732 113.515 79.0779L113.193 80.5431 109.465 80.5431 109.161 81.9555C109.114 82.1665 109.079 82.3716 109.079 82.565 109.079 83.321 109.512 83.7371 110.362 83.7371 111.147 83.7371 111.663 83.239 111.874 82.2251L111.939 81.8852 112.906 81.8852 112.841 82.2368C112.519 83.7664 111.634 84.5987 110.333 84.5987 108.868 84.5987 108.112 83.8426 108.112 82.5885 108.112 82.3306 108.147 82.0551 108.205 81.7504L108.879 78.568C109.184 77.0736 110.034 76.2355 111.353 76.2355 112.783 76.2355 113.603 76.9446 113.603 78.2281ZM109.624 79.7167 112.402 79.7167 112.577 78.8787C112.624 78.656 112.642 78.4626 112.642 78.2985 112.642 77.478 112.109 77.1087 111.341 77.1087 110.573 77.1087 110.087 77.5893 109.864 78.5856L109.624 79.7109Z" fill="#1D94CB" transform="matrix(1 0 0 1.00072 1065.05 45)"/><path d="M118.415 76.423 118.221 77.3549C118.01 77.2435 117.723 77.1966 117.5 77.1966 116.551 77.1966 115.895 77.982 115.555 79.5409L114.511 84.4404 113.515 84.4404 115.232 76.4055 116.07 76.4055 115.848 77.5776C116.281 76.675 116.908 76.2414 117.682 76.2414 117.905 76.2414 118.262 76.3234 118.421 76.4172Z" fill="#1D94CB" transform="matrix(1 0 0 1.00072 1065.05 45)"/><path d="M117.594 82.8346C117.594 82.6588 117.612 82.4478 117.659 82.2251L117.694 82.0786 118.626 82.0786 118.579 82.3189C118.544 82.4654 118.532 82.5943 118.532 82.735 118.532 83.4734 119.077 83.7489 119.704 83.7489 120.736 83.7489 121.169 82.9753 121.169 82.3013 121.169 81.5453 120.624 81.1467 120.015 80.7599 119.306 80.3087 118.52 79.8281 118.52 78.656 118.52 77.3549 119.47 76.2472 120.964 76.2472 122.107 76.2472 122.863 76.8919 122.863 77.9996 122.863 78.1754 122.845 78.3864 122.798 78.5915L121.867 78.5915C121.902 78.4157 121.931 78.2516 121.931 78.0757 121.931 77.4662 121.527 77.097 120.888 77.097 120.05 77.097 119.487 77.7534 119.487 78.5094 119.487 79.2655 120.032 79.6523 120.677 80.0215 121.368 80.4728 122.171 80.9709 122.171 82.1606 122.171 83.4441 121.24 84.6045 119.634 84.6045 118.491 84.6045 117.606 84.0243 117.606 82.8346Z" fill="#1D94CB" transform="matrix(1 0 0 1.00072 1065.05 45)"/><path d="M123.045 82.5943C123.045 82.354 123.08 82.0786 123.138 81.809L123.83 78.5798C124.152 77.0853 125.02 76.2472 126.321 76.2472 127.622 76.2472 128.542 76.9564 128.542 78.2574 128.542 78.4977 128.507 78.7732 128.448 79.0603L127.757 82.2896C127.434 83.784 126.567 84.6045 125.266 84.6045 123.965 84.6045 123.045 83.8954 123.045 82.5943ZM126.754 82.2603 127.493 78.8669C127.54 78.656 127.575 78.4626 127.575 78.2867 127.575 77.4662 127.059 77.1146 126.291 77.1146 125.524 77.1146 125.02 77.6596 124.815 78.5915L124.094 81.9848C124.047 82.1958 124.012 82.3892 124.012 82.565 124.012 83.3855 124.51 83.7371 125.295 83.7371 126.08 83.7371 126.567 83.1921 126.76 82.2603Z" fill="#1D94CB" transform="matrix(1 0 0 1.00072 1065.05 45)"/><path d="M134.467 77.8882C134.467 78.1637 134.432 78.4333 134.373 78.7556L133.154 84.4463 132.176 84.4463 133.365 78.8025C133.412 78.5622 133.447 78.3512 133.447 78.1578 133.447 77.5014 133.125 77.1146 132.416 77.1146 131.613 77.1146 130.939 77.7593 130.681 78.949L129.509 84.4463 128.513 84.4463 130.23 76.4113 131.068 76.4113 130.874 77.3901C131.326 76.6692 131.982 76.2472 132.756 76.2472 133.834 76.2472 134.479 76.8098 134.479 77.8882Z" fill="#1D94CB" transform="matrix(1 0 0 1.00072 1065.05 45)"/><path d="M140.14 78.0464C140.14 78.2867 140.111 78.527 140.058 78.8025L139.273 82.5005C139.062 83.45 139.015 84.1533 139.032 84.4463L138.101 84.4463C138.083 84.2705 138.118 83.913 138.183 83.4969 137.731 84.2177 137.075 84.6045 136.255 84.6045 135.176 84.6045 134.537 83.913 134.537 82.9166 134.537 81.2639 135.581 80.5079 137.157 80.0215 138.587 79.5878 138.892 79.4296 139.038 78.9783L139.12 78.5622C139.156 78.4157 139.167 78.275 139.167 78.1285 139.167 77.4838 138.751 77.097 138.013 77.097 137.274 77.097 136.759 77.5307 136.6 78.3336L136.536 78.6852 135.604 78.6852 135.686 78.2985C135.973 76.9622 136.841 76.2414 138.048 76.2414 139.32 76.2414 140.152 76.8333 140.152 78.0406ZM138.405 81.9848 138.792 80.0859C138.599 80.3087 138.194 80.4728 137.28 80.7599 136.202 81.1116 135.563 81.7269 135.563 82.7526 135.563 83.3503 135.885 83.7489 136.624 83.7489 137.462 83.7489 138.136 83.1218 138.405 81.979Z" fill="#1D94CB" transform="matrix(1 0 0 1.00072 1065.05 45)"/><path d="M140.269 82.8346C140.269 82.6588 140.287 82.4478 140.334 82.2251L140.369 82.0786 141.301 82.0786 141.254 82.3189C141.219 82.4654 141.207 82.5943 141.207 82.735 141.207 83.4734 141.752 83.7489 142.379 83.7489 143.41 83.7489 143.844 82.9753 143.844 82.3013 143.844 81.5453 143.299 81.1467 142.69 80.7599 141.98 80.3087 141.195 79.8281 141.195 78.656 141.195 77.3549 142.145 76.2472 143.639 76.2472 144.782 76.2472 145.538 76.8919 145.538 77.9996 145.538 78.1754 145.52 78.3864 145.473 78.5915L144.542 78.5915C144.577 78.4157 144.606 78.2516 144.606 78.0757 144.606 77.4662 144.202 77.097 143.563 77.097 142.725 77.097 142.162 77.7534 142.162 78.5094 142.162 79.2655 142.707 79.6523 143.352 80.0215 144.043 80.4728 144.846 80.9709 144.846 82.1606 144.846 83.4441 143.914 84.6045 142.309 84.6045 141.166 84.6045 140.281 84.0243 140.281 82.8346Z" fill="#1D94CB" transform="matrix(1 0 0 1.00072 1065.05 45)"/><path d="M4.17279 54.9613C2.28566 54.9613 1.06664 54.0529 0.521599 52.2419 0.17582 51.1519 -1.95199e-16 49.8215 -1.95199e-16 48.2567 -1.95199e-16 45.6253 0.52746 42.3023 1.58238 38.2877 2.6373 34.2732 3.68636 30.2703 4.72955 26.2675 4.9757 25.3239 5.48558 24.8492 6.25919 24.8492 6.48189 24.8492 6.72804 24.902 7.00349 24.9957 7.60128 25.2184 7.90017 25.6287 7.90017 26.2265 7.90017 26.5019 7.84743 26.8243 7.75366 27.1935 4.84677 38.3229 3.39332 45.8773 3.39332 49.8567 3.39332 51.7203 3.72738 52.6522 4.40136 52.6522 5.26874 52.6522 7.09726 51.3453 9.88108 48.7373 9.90452 48.7373 9.91624 48.7255 9.91624 48.7021 10.1917 48.456 10.473 48.3153 10.7719 48.2919 10.9477 48.2919 11.1177 48.368 11.2935 48.5146 11.4693 48.6611 11.5572 48.8486 11.5572 49.0713 11.5572 49.3175 11.4693 49.5929 11.2935 49.8918 9.30673 53.2676 6.93316 54.9613 4.17279 54.9613Z" fill="#1D94CB" transform="matrix(1 0 0 1.00072 1065.05 45)"/><path d="M21.2449 51.7203C21.0456 51.7203 20.8698 51.6969 20.7233 51.6442 18.76 51.0229 17.7812 49.5578 17.7812 47.2487 17.7812 46.4282 17.6933 46.0179 17.5175 46.0179 17.4941 46.0179 16.8846 46.7739 15.689 48.2919 15.0209 49.1592 14.3703 49.9504 13.7491 50.6596 13.1279 51.3687 12.4949 51.7203 11.8503 51.7203 11.3521 51.7203 10.8657 51.5855 10.3968 51.3101 9.37706 50.7416 8.86718 49.8684 8.86718 48.7021 8.86718 48.4032 8.90235 48.0926 8.97853 47.7703 9.59976 44.6641 11.0884 41.558 13.4502 38.4518 14.4172 37.1859 15.4253 36.553 16.4685 36.553 17.1131 36.553 17.6992 36.7581 18.2208 37.1683 18.7424 37.5786 19.0061 37.9302 19.0061 38.2291 19.0061 38.528 18.9534 38.7624 18.8596 38.9382 18.5842 39.4598 18.2853 39.7177 17.9629 39.7177 17.6172 39.7177 17.3417 39.6532 17.1424 39.5302 16.9432 39.4071 16.7674 39.3309 16.6208 39.3075 16.4743 39.3075 16.2751 39.4833 16.0231 39.8291 14.9564 41.2708 13.8839 43.4334 12.8173 46.3168 12.6708 46.6919 12.5946 46.9498 12.5946 47.1021 12.5946 47.2252 12.6297 47.2897 12.7059 47.2897 13.081 47.2897 14.1476 46.182 15.9117 43.9725 18.1505 41.1653 19.516 39.6884 20.0142 39.536 20.2896 39.4598 20.524 39.4247 20.7233 39.4247 20.9226 39.4247 21.0808 39.4481 21.2097 39.5009 21.9072 39.8759 22.2529 40.5792 22.2529 41.6224 22.2529 42.0678 22.1885 42.5308 22.0654 42.9997 21.62 44.8165 21.3914 46.4047 21.3914 47.7703 21.3914 48.79 21.6024 49.7687 22.0244 50.7123 22.124 50.9116 22.1709 51.0757 22.1709 51.1987 22.1709 51.5445 21.8603 51.7203 21.239 51.7203Z" fill="#1D94CB" transform="matrix(1 0 0 1.00072 1065.05 45)"/><path d="M26.6308 86.0111 25.195 85.9525C22.6632 85.5657 21.2449 84.1474 20.9343 81.6918 20.7409 80.1563 20.6471 78.8142 20.6471 77.6655 20.6471 73.7916 21.239 68.728 22.4288 62.4747 22.546 61.9355 22.5987 61.4373 22.5987 60.9802 22.5987 60.7868 22.587 60.6286 22.5694 60.4938 22.5518 60.359 22.4991 60.1304 22.4229 59.8022 22.3467 59.474 21.8251 59.1048 20.8698 58.6828 19.9087 58.2608 19.3929 57.7451 19.3167 57.1297 19.3167 57.0125 19.3343 56.7547 19.3754 56.3503 19.4105 55.9459 19.9145 55.5181 20.8698 55.0551 23.2492 53.9826 24.6675 52.0075 25.1305 49.1299 25.5115 46.6392 26.1854 43.492 27.1466 39.6943 27.6858 37.5434 28.1839 36.2599 28.6411 35.838 28.9106 35.6094 29.2916 35.4922 29.7897 35.4922 31.671 35.4922 32.6087 36.2423 32.6087 37.7368 32.6087 39.0027 31.9348 42.0913 30.5927 47.0025 30.3641 47.9226 30.2469 48.6904 30.2469 49.3058 30.2469 50.2259 30.534 50.6889 31.1084 50.6889 31.6066 50.6889 32.4505 50.5365 33.6402 50.2259 34.8299 49.9211 35.8438 49.7629 36.6877 49.7629 36.9573 49.7629 37.3324 49.7805 37.8071 49.8215 38.2877 49.8625 38.95 50.2845 39.7939 51.0874 40.4855 51.7028 40.8312 52.3181 40.8312 52.9276 40.8312 53.3144 40.6613 53.713 40.3155 54.1349 39.9697 54.5569 39.4716 54.7679 38.821 54.7679 38.3991 54.7679 37.9595 54.6331 37.4965 54.3635 36.7698 53.9005 36.0782 53.6719 35.4277 53.6719 34.5427 53.6719 33.4351 53.9767 32.093 54.5921 31.5538 54.8617 30.997 55.1078 30.4227 55.3422 30.2293 55.4184 30.1355 55.5708 30.1355 55.8052 30.1355 56.11 30.1941 56.3796 30.3055 56.6081 31.9172 59.8315 32.7201 64.3208 32.7201 70.0759 32.7201 71.6466 32.6439 73.6334 32.4915 76.0304 32.3391 78.4274 31.6652 80.7599 30.4754 83.0221 29.5553 84.8272 28.266 85.8235 26.6191 86.0169ZM26.2323 81.4632C26.5371 81.4222 27.1349 78.8904 28.014 73.8678 28.7055 69.8415 29.0513 66.7119 29.0513 64.4907 28.8579 62.2285 28.5356 60.8864 28.0726 60.4645 27.9554 60.5817 27.844 60.7165 27.7268 60.8688 27.6096 61.0212 27.4572 61.7714 27.2638 63.1135 26.2675 69.7477 25.7693 75.3916 25.7693 80.0332 25.7693 80.9944 25.9217 81.4691 26.2323 81.4691Z" fill="#1D94CB" transform="matrix(1 0 0 1.00072 1065.05 45)"/><path d="M44.9864 63.7406C39.1551 63.7406 36.2423 61.0388 36.2423 55.6294 36.2423 55.1313 36.3478 54.0001 36.5588 52.2361 36.7698 50.472 37.5844 48.1688 39.0027 45.3322 41.5697 40.2686 44.3183 37.7368 47.2311 37.7368 49.6105 37.7368 51.4097 38.9265 52.6405 41.306 53.0214 42.0327 53.2148 42.8004 53.2148 43.6092 53.2148 44.6055 52.9276 45.6428 52.3533 46.7153 49.0537 51.5855 45.9476 54.7151 43.029 56.0924 41.9916 56.5906 41.4759 57.1122 41.4759 57.6455 41.4759 57.874 41.5111 58.1085 41.5931 58.337 41.9389 59.5678 42.6305 60.1773 43.6619 60.1773 45.1974 60.1773 47.2487 59.2396 49.8215 57.3583 51.5094 56.1334 52.7167 55.1899 53.4492 54.5393 54.3694 53.6192 55.0961 53.1562 55.6353 53.1562 55.9049 53.1562 56.1744 53.25 56.4382 53.4434 56.8601 53.8302 57.0711 54.3049 57.0711 54.8792 57.0711 55.4946 56.6785 56.3972 55.8931 57.581 55.1078 58.7707 53.8243 60.0366 52.0368 61.3787 50.2552 62.7208 48.6494 63.471 47.2311 63.6234 46.4282 63.6995 45.678 63.7406 44.9864 63.7406ZM42.8004 51.6559C43.7967 50.9643 44.7579 49.757 45.678 48.0281 47.0611 45.4963 47.7468 43.9257 47.7468 43.3103 47.7468 43.0055 47.5534 42.8473 47.1725 42.8473 46.9029 42.8473 46.6919 42.9411 46.5395 43.1345 43.6619 48.0457 42.2261 50.6947 42.2261 51.0757 42.2261 51.3804 42.4195 51.5738 42.8004 51.65Z" fill="#1D94CB" transform="matrix(1 0 0 1.00072 1065.05 45)"/><path d="M60.9274 66.9639C58.0088 66.9639 56.1334 65.5632 55.2895 62.7618 54.7503 61.074 54.4866 59.0227 54.4866 56.6023 54.4866 52.535 55.3012 47.4069 56.9305 41.2063 58.5597 35.0116 60.1831 28.8227 61.7948 22.6456 62.1758 21.1863 62.967 20.4596 64.1567 20.4596 64.5024 20.4596 64.8834 20.5358 65.3054 20.6881 66.2255 21.0339 66.6885 21.6669 66.6885 22.587 66.6885 23.009 66.6123 23.5071 66.4599 24.0815 61.9706 41.2708 59.726 52.9335 59.726 59.0696 59.726 61.9472 60.2417 63.3831 61.2791 63.3831 62.6212 63.3831 65.4402 61.367 69.736 57.3407 69.7712 57.3407 69.7946 57.3231 69.7946 57.2821 70.2166 56.9012 70.6561 56.6902 71.1191 56.6492 71.3887 56.6492 71.6583 56.7664 71.9221 56.9949 72.1916 57.2235 72.3264 57.5107 72.3264 57.8565 72.3264 58.2433 72.1916 58.6594 71.9221 59.1224 68.8511 64.3383 65.1881 66.9464 60.9333 66.9464Z" fill="#1D94CB" transform="matrix(1 0 0 1.00072 1065.05 45)"/><path d="M73.1821 64.9479 73.0121 64.9479C71.0547 64.9479 69.9998 63.6234 69.8474 60.9743 69.7712 59.6733 69.7302 58.4074 69.7302 57.1766 69.7302 52.535 70.1932 48.2391 71.1133 44.289 71.3829 43.1755 72.1096 42.6187 73.2993 42.6187 75.3681 42.6187 76.4055 43.4451 76.4055 45.0919 76.4055 45.5549 76.3644 45.9769 76.2882 46.3578 75.3271 51.2281 74.7352 56.1803 74.5066 61.2029 74.5066 61.6249 74.5535 62.0058 74.6531 62.3516 74.7469 62.6974 74.7996 63.0607 74.7996 63.4475 74.7996 63.7523 74.7703 64.0629 74.7117 64.3677 74.6531 64.6724 74.1432 64.8658 73.188 64.942ZM75.0282 41.7572 74.2253 41.6986C73.1528 41.47 72.5726 40.7609 72.4964 39.5712L72.4964 38.4225C72.4964 37.0394 73.1118 34.8182 74.3366 31.7472L74.6238 30.9443C74.9286 30.2176 75.5029 29.8308 76.3527 29.7956 76.7337 29.7956 77.1205 29.8718 77.5014 30.0242 78.8025 30.5985 79.4764 31.2901 79.5175 32.093 79.5175 32.9369 78.5387 35.7735 76.5813 40.6085 76.2355 41.3763 75.7198 41.7572 75.0282 41.7572Z" fill="#1D94CB" transform="matrix(1 0 0 1.00072 1065.05 45)"/><path d="M83.5437 63.8519C81.0471 63.8519 78.9959 62.6622 77.3842 60.2828 76.6926 59.2865 76.3469 58.003 76.3469 56.4265 76.3469 53.4317 77.3607 49.6574 79.3944 45.0919 80.6193 42.2905 81.809 40.1807 82.9635 38.7624 83.8075 37.6899 84.9562 37.1507 86.4155 37.1507 89.1758 37.1507 90.559 38.0123 90.559 39.7411 90.559 40.0869 90.4535 40.3389 90.2425 40.4913 90.0315 40.6437 89.4454 40.8781 88.4901 41.1829 87.2242 41.5697 86.1517 42.6422 85.2668 44.4062 83.198 48.6259 82.1606 53.039 82.1606 57.6396 82.1606 58.8704 82.5826 59.7319 83.4265 60.23 83.6961 60.3824 83.9423 60.4586 84.1767 60.4586 85.0206 60.4586 86.8023 58.9641 89.5275 55.9693 89.8733 55.5884 90.3128 55.395 90.852 55.395L91.6022 55.395C92.0241 55.395 92.2351 55.6236 92.2351 56.0865 92.0065 57.8916 91.3736 59.4799 90.3363 60.863 88.8008 62.8556 86.5385 63.8578 83.5437 63.8578Z" fill="#1D94CB" transform="matrix(1 0 0 1.00072 1065.05 45)"/><path d="M95.7398 64.9479 95.5698 64.9479C93.6124 64.9479 92.5574 63.6234 92.4051 60.9743 92.3289 59.6733 92.2878 58.4074 92.2878 57.1766 92.2878 52.535 92.7508 48.2391 93.671 44.289 93.9406 43.1755 94.6673 42.6187 95.857 42.6187 97.9258 42.6187 98.9632 43.4451 98.9632 45.0919 98.9632 45.5549 98.9221 45.9769 98.8459 46.3578 97.8848 51.2281 97.2929 56.1803 97.0643 61.2029 97.0643 61.6249 97.1112 62.0058 97.2108 62.3516 97.3046 62.6974 97.3573 63.0607 97.3573 63.4475 97.3573 63.7523 97.328 64.0629 97.2694 64.3677 97.2108 64.6724 96.7009 64.8658 95.7456 64.942ZM97.5859 41.7572 96.783 41.6986C95.7105 41.47 95.1303 40.7609 95.0541 39.5712L95.0541 38.4225C95.0541 37.0394 95.6695 34.8182 96.8943 31.7472L97.1815 30.9443C97.4863 30.2176 98.0606 29.8308 98.9104 29.7956 99.2913 29.7956 99.6781 29.8718 100.059 30.0242 101.36 30.5985 102.034 31.2901 102.075 32.093 102.075 32.9369 101.096 35.7735 99.139 40.6085 98.7932 41.3763 98.2775 41.7572 97.5859 41.7572Z" fill="#1D94CB" transform="matrix(1 0 0 1.00072 1065.05 45)"/><path d="M138.845 61.9531C138.54 61.9531 138.271 61.912 138.042 61.8358 135.012 60.8747 133.494 58.6125 133.494 55.0433 133.494 53.7774 133.359 53.1445 133.09 53.1445 133.049 53.1445 132.111 54.3166 130.271 56.655 129.233 57.9971 128.237 59.2161 127.276 60.3062 126.315 61.4022 125.336 61.9472 124.34 61.9472 123.572 61.9472 122.822 61.7362 122.095 61.3143 120.525 60.4293 119.733 59.0872 119.733 57.288 119.733 56.825 119.792 56.3503 119.903 55.8521 120.864 51.0581 123.162 46.2641 126.807 41.4642 128.302 39.5067 129.855 38.528 131.466 38.528 132.463 38.528 133.365 38.8445 134.168 39.4774 134.971 40.1104 135.375 40.6554 135.375 41.1184 135.375 41.5814 135.299 41.9448 135.147 42.2144 134.725 43.0173 134.262 43.4216 133.764 43.4216 133.225 43.4216 132.803 43.3279 132.498 43.1345 132.193 42.9411 131.924 42.8297 131.695 42.7887 131.466 42.7887 131.156 43.0583 130.775 43.5916 129.122 45.8187 127.475 49.1534 125.828 53.6075 125.6 54.1818 125.483 54.5862 125.483 54.8148 125.483 55.0082 125.541 55.1019 125.653 55.1019 126.227 55.1019 127.88 53.3965 130.599 49.9797 134.051 45.6428 136.161 43.363 136.929 43.1345 137.35 43.0173 137.714 42.9645 138.024 42.9645 138.335 42.9645 138.581 43.0055 138.775 43.0817 139.847 43.6561 140.386 44.752 140.386 46.3637 140.386 47.0553 140.293 47.7644 140.099 48.4911 139.408 51.2925 139.062 53.7481 139.062 55.858 139.062 57.4286 139.39 58.9465 140.041 60.4058 140.193 60.7106 140.269 60.9626 140.269 61.156 140.269 61.6952 139.789 61.9589 138.833 61.9589Z" fill="#1D94CB" transform="matrix(1 0 0 1.00072 1065.05 45)"/><path d="M125.377 21.5614C126.028 19.2992 126.356 17.7637 126.356 16.9549 126.315 15.8414 125.512 15.0971 123.941 14.7103 123.596 14.6341 123.174 14.593 122.675 14.593 121.79 14.6341 121.105 15.4956 120.607 17.1835L118.016 25.8748C117.248 28.3715 116.551 30.3348 115.918 31.7707 115.285 33.2065 113.867 33.9391 111.657 33.9567 109.448 33.9743 107.696 34.9647 106.394 36.9222 101.946 43.6385 99.7192 50.6361 99.7192 57.9268 99.7192 59.8081 99.9126 61.5311 100.294 63.1076 100.985 65.868 102.614 67.2511 105.187 67.2511 106.992 67.2511 108.487 65.5632 109.676 62.1875 110.292 60.4586 111.769 55.9752 114.107 48.7197 114.529 47.4948 114.799 46.8794 114.91 46.8794 114.986 46.8794 115.027 46.9967 115.027 47.2252 114.834 48.7197 114.74 52.8046 114.74 59.4799 114.74 64.7369 115.279 68.9976 116.363 72.262 116.481 72.6195 116.703 72.9242 117.002 73.1528L117.002 73.1528C117.395 73.4458 117.899 73.5865 118.38 73.4868 118.52 73.4575 118.661 73.4165 118.79 73.3579 119.405 73.0942 119.798 72.4905 119.839 71.8224L119.921 70.5096C119.933 70.3514 119.921 70.1932 119.886 70.0349 119.552 68.3881 119.376 66.5889 119.37 64.6314 119.352 59.9311 119.341 57.37 119.341 56.9481 119.341 48.4325 120.126 41.0481 121.703 34.7948 122.587 31.2256 123.812 26.8184 125.383 21.5614ZM110.79 46.7915C109.043 51.4156 107.748 55.0316 106.904 57.6396 106.06 60.2476 105.468 61.5545 105.123 61.5545 104.777 61.5545 104.607 61.326 104.607 60.863L104.607 59.5385C104.607 50.8295 106.986 43.8495 111.745 38.5925 112.361 37.9419 112.8 37.6137 113.07 37.6137 113.298 37.6137 113.416 37.8423 113.416 38.3053 113.416 39.3426 112.542 42.1733 110.796 46.7915Z" fill="#1D94CB" transform="matrix(1 0 0 1.00072 1065.05 45)"/><path d="M166.923 21.5614C167.574 19.2992 167.902 17.7637 167.902 16.9549 167.861 15.8414 167.058 15.0971 165.488 14.7103 165.142 14.6341 164.72 14.593 164.222 14.593 163.337 14.6341 162.651 15.4956 162.153 17.1835L159.562 25.8748C158.795 28.3715 158.097 30.3348 157.464 31.7707 156.831 33.2065 155.413 33.9391 153.204 33.9567 150.994 33.9743 149.242 34.9647 147.941 36.9222 143.492 43.6385 141.265 50.6361 141.265 57.9268 141.265 59.8081 141.459 61.5311 141.84 63.1076 142.531 65.868 144.161 67.2511 146.733 67.2511 148.538 67.2511 150.033 65.5632 151.223 62.1875 151.838 60.4586 153.315 55.9752 155.653 48.7197 156.075 47.4948 156.345 46.8794 156.456 46.8794 156.532 46.8794 156.573 46.9967 156.573 47.2252 156.38 48.7197 156.286 52.8046 156.286 59.4799 156.286 64.7134 156.82 68.9566 157.892 72.2092 158.009 72.5667 158.232 72.8773 158.531 73.1L158.531 73.1C158.924 73.3931 159.422 73.5279 159.902 73.4341 160.049 73.4048 160.189 73.3638 160.324 73.3052 160.934 73.0414 161.326 72.4436 161.367 71.7814L161.467 70.2166C161.467 70.2166 161.467 70.2166 161.467 70.2166 161.104 68.5229 160.922 66.6592 160.91 64.6314 160.893 59.9311 160.881 57.37 160.881 56.9481 160.881 48.4325 161.666 41.0481 163.243 34.7948 164.128 31.2256 165.353 26.8184 166.923 21.5614ZM152.336 46.7915C150.59 51.4156 149.295 55.0316 148.451 57.6396 147.607 60.2476 147.015 61.5545 146.669 61.5545 146.323 61.5545 146.153 61.326 146.153 60.863L146.153 59.5385C146.153 50.8295 148.533 43.8495 153.291 38.5925 153.907 37.9419 154.346 37.6137 154.616 37.6137 154.845 37.6137 154.962 37.8423 154.962 38.3053 154.962 39.3426 154.089 42.1733 152.342 46.7915Z" fill="#1D94CB" transform="matrix(1 0 0 1.00072 1065.05 45)"/></g></svg>